# xmcd
#
# Track frame offsets:
#	150
#	20621
#	48653
#	69890
#	117917
#	137783
#	179339
#	192708
#	248317
#	292057
#	324209
#
# Disc length: 4566 seconds
#
# Revision: 1
# Processed by: cddbd v1.5.2PL0 Copyright (c) Steve Scherf et al.
# Submitted via: audiograbber 1.83.01
#
DISCID=9f11d40b
DTITLE=Grateful Dead - 71-11-14 Texas Christian University, Fort Worth TX
DYEAR=1900
DGENRE=
TTITLE0=Mexicali Blues
TTITLE1=Casey Jones
TTITLE2=One More Saturday Night
TTITLE3=Truckin'
TTITLE4=Drums
TTITLE5=The Other One
TTITLE6=Me and My Uncle
TTITLE7=The Other One
TTITLE8=Wharf Rat
TTITLE9=Sugar Magnolia
TTITLE10=Johnny B Goode
EXTD=
EXTT0=
EXTT1=
EXTT2=
EXTT3=
EXTT4=
EXTT5=
EXTT6=
EXTT7=
EXTT8=
EXTT9=
EXTT10=
PLAYORDER=
